<svg xmlns="http://www.w3.org/2000/svg" width="21" height="24.801" viewBox="0 0 21 24.801"><defs><style>.a{fill:none;stroke:#093ca0;stroke-linecap:round;stroke-linejoin:round;stroke-width:1.5px;}.b{fill:#fb1716;}.c{isolation:isolate;}.d{fill:#fff;}</style></defs><g transform="translate(-462.023 -1022.09)"><g transform="translate(462.774 1022.84)"><path class="a" d="M1972.839,1305.3c-1.076-.1-2.312-1-2.312-3.62v-4.218a6.29,6.29,0,0,0-5.243-6.072v-1.543a1.348,1.348,0,0,0-1.361-1.335h0a1.349,1.349,0,0,0-1.362,1.335v1.543a6.29,6.29,0,0,0-5.242,6.072v4.218c0,2.617-1.236,3.515-2.311,3.62-.861.082-.833,1.354-.833,1.354a.165.165,0,0,0,.167.164h19.164a.167.167,0,0,0,.167-.164S1973.7,1305.379,1972.839,1305.3Z" transform="translate(-1954.174 -1288.509)"/><path class="a" d="M1958.718,1302.555a3.026,3.026,0,0,0,6.016,0Z" transform="translate(-1952.05 -1281.946)"/></g><g transform="translate(474.222 1027.083)"><ellipse class="b" cx="4.128" cy="4.128" rx="4.128" ry="4.128"/><g class="c" transform="translate(3.337 1.263)"><path class="d" d="M1935.944,1269.812a.728.728,0,1,1,.787-.717A.737.737,0,0,1,1935.944,1269.812Zm-.741-5.73h1.442l-.156,3.734h-1.13Z" transform="translate(-1935.148 -1264.082)"/></g></g></g></svg>