<svg id="Layer_1" data-name="Layer 1" xmlns="http://www.w3.org/2000/svg" viewBox="0 0 53 53"><defs><style>.cls-1{fill:#fff;}</style></defs><path class="cls-1" d="M36.49,14.53H22.77a1.68,1.68,0,0,0-1.63,1.72V23.3H15.09A1.12,1.12,0,0,0,14,24.42v2.26a1.12,1.12,0,0,0,1.12,1.12h6.05v1.74H17.91a.94.94,0,0,0-.94.94V33.1a.94.94,0,0,0,.94.94h3.23v5.49a1.68,1.68,0,0,0,1.63,1.73h2.82a1.69,1.69,0,0,0,1.63-1.73V34h3.35a.94.94,0,0,0,.94-.94V30.48a.94.94,0,0,0-.94-.94H27.22V27.8h6.17a1.12,1.12,0,0,0,1.12-1.12V24.42a1.12,1.12,0,0,0-1.12-1.12H27.22v-1a1.68,1.68,0,0,1,1.63-1.73h7.63a1.68,1.68,0,0,0,1.64-1.72V16.25A1.69,1.69,0,0,0,36.49,14.53Z"/><path class="cls-1" d="M53,26.49c0-2.26-1.76-3.68-3.18-4.83a11.76,11.76,0,0,1-1.25-1.09,10.76,10.76,0,0,1,.55-1.66c.64-1.68,1.44-3.75.33-5.67S46.11,11,44.33,10.69a1.55,1.55,0,0,1-2-2c-.28-1.78-.62-4-2.55-5.12s-4-.31-5.67.34a11.92,11.92,0,0,1-1.66.54,13,13,0,0,1-1.1-1.24C30.19,1.77,28.76,0,26.5,0s-3.69,1.77-4.83,3.19a11.75,11.75,0,0,1-1.1,1.24,11.92,11.92,0,0,1-1.66-.54c-1.67-.65-3.74-1.46-5.67-.34S11,6.89,10.69,8.67a13.51,13.51,0,0,1-.34,1.68,11.9,11.9,0,0,1-1.68.34c-1.78.28-4,.62-5.12,2.55s-.31,4,.33,5.67a10.76,10.76,0,0,1,.55,1.66,11.65,11.65,0,0,1-1.24,1.09C1.77,22.81,0,24.23,0,26.5s1.77,3.69,3.19,4.83a10.72,10.72,0,0,1,1.24,1.1,11.79,11.79,0,0,1-.54,1.65c-.65,1.68-1.45,3.76-.34,5.67S6.89,42,8.67,42.31a10.64,10.64,0,0,1,1.68.34,12,12,0,0,1,.33,1.67c.28,1.79.63,4,2.57,5.13s4,.3,5.66-.34a12,12,0,0,1,1.66-.55,13.11,13.11,0,0,1,1.1,1.25C22.81,51.23,24.24,53,26.5,53s3.69-1.77,4.83-3.2a13,13,0,0,1,1.1-1.24,11.92,11.92,0,0,1,1.66.54c1.67.65,3.75,1.45,5.66.34S42,46.1,42.31,44.32a1.55,1.55,0,0,1,2-2c1.78-.28,4-.62,5.12-2.55s.31-4-.33-5.67a10.76,10.76,0,0,1-.55-1.66,13,13,0,0,1,1.24-1.1C51.23,30.18,53,28.76,53,26.49Zm-6.31,1c-1.19,1-2.54,2-3,3.67s.18,3.31.74,4.76c.14.35.33.86.45,1.26-.41.1-1,.19-1.35.25-1.52.23-3.25.5-4.46,1.71S37.62,42,37.39,43.56c-.06.39-.15.94-.25,1.35-.4-.12-.91-.31-1.26-.45-1.45-.56-3.09-1.19-4.76-.74s-2.71,1.78-3.67,3a14,14,0,0,1-.95,1.11c-.3-.31-.69-.78-.95-1.11-.95-1.18-2-2.53-3.67-3a3.88,3.88,0,0,0-1.17-.15,10.14,10.14,0,0,0-3.59.89c-.35.14-.86.33-1.26.45-.1-.41-.19-1-.25-1.35a7.63,7.63,0,0,0-1.7-4.45C12.7,37.89,11,37.62,9.44,37.39c-.38-.06-.94-.15-1.35-.25.12-.4.32-.91.45-1.26a7.76,7.76,0,0,0,.75-4.76,7.58,7.58,0,0,0-3-3.67c-.32-.26-.8-.65-1.11-.95.31-.3.79-.68,1.11-.95a7.56,7.56,0,0,0,3-3.66c.44-1.67-.19-3.32-.75-4.77-.13-.35-.33-.86-.45-1.25.41-.1,1-.19,1.35-.25,1.53-.24,3.25-.51,4.46-1.72S15.38,11,15.62,9.44c.06-.38.14-.94.24-1.35.4.12.91.32,1.27.45a7.76,7.76,0,0,0,4.76.75,7.58,7.58,0,0,0,3.67-3c.26-.32.64-.8.94-1.11.31.31.69.79.95,1.11a7.58,7.58,0,0,0,3.67,3c1.67.45,3.31-.19,4.76-.74a13.24,13.24,0,0,1,1.26-.45c.1.41.19,1,.25,1.34a7.62,7.62,0,0,0,1.72,4.47c1.2,1.2,2.93,1.47,4.45,1.71.39.06.94.15,1.35.25-.12.39-.31.9-.45,1.26-.55,1.45-1.19,3.09-.74,4.76s1.78,2.71,3,3.67c.32.26.8.64,1.11.94C47.48,26.81,47,27.19,46.69,27.45Z"/></svg>