<svg id="Layer_1" data-name="Layer 1" xmlns="http://www.w3.org/2000/svg" viewBox="0 0 48 48"><defs><style>.cls-1{fill:#fff;}</style></defs><g id="Group_2441" data-name="Group 2441"><path id="Path_2420-3" data-name="Path 2420-3" class="cls-1" d="M24,0A24,24,0,1,0,48,24,24,24,0,0,0,24,0Zm0,43.05a19,19,0,1,1,19-19h0A19.07,19.07,0,0,1,24,43.05Z"/><path id="Path_2421-3" data-name="Path 2421-3" class="cls-1" d="M32.88,11H19.17a1.68,1.68,0,0,0-1.63,1.72V19.8h-6a1.12,1.12,0,0,0-1.12,1.12h0v2.26a1.12,1.12,0,0,0,1.12,1.12h6V26H14.31a.94.94,0,0,0-.94.94V29.6a.94.94,0,0,0,.94.94h3.23V36a1.68,1.68,0,0,0,1.63,1.73H22A1.69,1.69,0,0,0,23.62,36h0V30.54H27a.94.94,0,0,0,.94-.94V27A.94.94,0,0,0,27,26H23.61V24.3h6.17a1.13,1.13,0,0,0,1.13-1.12V20.92a1.13,1.13,0,0,0-1.13-1.12H23.61v-1a1.68,1.68,0,0,1,1.63-1.72h7.64a1.68,1.68,0,0,0,1.63-1.73h0V12.76A1.68,1.68,0,0,0,32.88,11Z"/></g></svg>