<svg id="Layer_1" data-name="Layer 1" xmlns="http://www.w3.org/2000/svg" viewBox="0 0 512 512"><defs><style>.cls-1{fill:#202249;}.cls-2{fill:none;stroke:#717070;}.cls-3{fill:#fff;}.cls-4{fill:#fbbb0e;}</style></defs><g id="Rectangle_1934" data-name="Rectangle 1934"><rect class="cls-1" width="512" height="512"/><rect class="cls-2" x="0.5" y="0.5" width="511" height="511"/></g><g id="Group_2439" data-name="Group 2439"><g id="Group_1390" data-name="Group 1390"><g id="Group_15" data-name="Group 15"><g id="Group_1390-2" data-name="Group 1390-2"><path id="Path_1836" data-name="Path 1836" class="cls-3" d="M318.74,88.22c-.41-.45-.82-.9-1.23-1.33a1.84,1.84,0,0,1-.76-.56l-.4-.5c-27.42-28-66.21-19.25-85.57-6.46a67,67,0,0,0-24.85,30.4c-.56,1.27-1.05,2.55-1.55,4-.31.91-.62,1.86-.91,2.81a74.94,74.94,0,0,0-2.36,27.72,15.72,15.72,0,0,0,16.82,14.28h.17a15.7,15.7,0,0,0,14.27-17,55.44,55.44,0,0,1-.17-7.06c.06-1.19.16-2.35.3-3.45a19.6,19.6,0,0,1,1.43-7.22,20.76,20.76,0,0,1,5.31-7.7l.93-.83a21,21,0,0,1,3-2l.54-.27a21.27,21.27,0,0,1,3.27-1.36,20.24,20.24,0,0,1,6.14-.95,21,21,0,0,1,5,.61,20.67,20.67,0,0,1,12.46,8.84l49.81,82.2,3.7-5.94a2.22,2.22,0,0,1,.39-.47C348.32,162.66,345.85,117.61,318.74,88.22Z"/><path id="Path_1837" data-name="Path 1837" class="cls-3" d="M265.72,277.24a10,10,0,0,0-14,2.27h0l-5.16,7.15a10,10,0,0,0,16,12c.07-.1.14-.19.2-.29l5.16-7.15A10,10,0,0,0,265.72,277.24Z"/><path id="Path_1838" data-name="Path 1838" class="cls-3" d="M249.91,254.09h0a10,10,0,0,0-14,2.26h0l-8.23,11.41a10,10,0,1,0,16.1,11.9l.14-.2,8.22-11.4a10,10,0,0,0-2.26-14Z"/><path id="Path_1839" data-name="Path 1839" class="cls-3" d="M235.14,246.5a10,10,0,0,0-2.26-14h0a10,10,0,0,0-14,2.27l-8.23,11.4a10,10,0,1,0,16,12c.07-.1.15-.2.22-.31Z"/><path id="Path_1840" data-name="Path 1840" class="cls-3" d="M210.25,235.67l5.39-7.47a10,10,0,0,0-16.24-11.71h0L194,224a10,10,0,0,0,2.26,14h0A10,10,0,0,0,210.25,235.67Z"/><path id="Path_1841" data-name="Path 1841" class="cls-3" d="M273.49,135.78a20.69,20.69,0,0,1-35.56,9.57,21.38,21.38,0,0,1-19.35,18.81c-.78.05-1.33.08-1.87.08a21.41,21.41,0,0,1-21.23-19.48,80.77,80.77,0,0,1,2.58-29.8q.47-1.58,1-3.09c.55-1.55,1.11-3,1.68-4.29a72.7,72.7,0,0,1,26.93-32.92,76.59,76.59,0,0,1,41-13.25q-3.19-.48-6.45-.74a106.27,106.27,0,0,0-17.75.1,83.46,83.46,0,0,0-51.58,24.56c-.94.94-1.85,1.9-2.73,2.87-27.27,29.56-29.64,74.92-5.65,107.87l11.17,16.8a15.16,15.16,0,0,1,27,10.52,2.1,2.1,0,0,0,2,2.23,2.16,2.16,0,0,0,.44,0,14.53,14.53,0,0,1,2-.14s6.2-1.28,11.83,5.9a15.29,15.29,0,0,1,3.18,7,15,15,0,0,1-.33,6.12,2.11,2.11,0,0,0,1.49,2.58,2.25,2.25,0,0,0,.52.08,16.07,16.07,0,0,1,9.21,2.73,15.17,15.17,0,0,1,5.47,17.27,2.14,2.14,0,0,0,1.22,2.77,2.09,2.09,0,0,0,.7.15,14.23,14.23,0,0,1,8.42,3,15.29,15.29,0,0,1,6.11,9.89.22.22,0,0,1,0,.08l1.32-.05a19.9,19.9,0,0,0,4-.78,12.53,12.53,0,0,0,3.33-1.62,11.8,11.8,0,0,0,4.83-6.34,7.25,7.25,0,0,0-.75-6.2l-30.93-49.4-.09-.15-.1-.15s0,0,0-.07a2.83,2.83,0,0,1-.21-.55,2,2,0,0,1-.05-.24,2.61,2.61,0,0,1-.05-.48,2.85,2.85,0,0,1,5.42-1.21L288,254.31a5.79,5.79,0,0,0,2,1.83c3,1.64,7.25,1.15,10.88-1.3a12.25,12.25,0,0,0,4.92-6.3,6.69,6.69,0,0,0-.59-5.87s-21.15-34.73-28.68-46l-.12-.2-.12-.19a.32.32,0,0,1,0-.09.92.92,0,0,1-.09-.23,2.1,2.1,0,0,1-.16-.82s0-.08,0-.13a1.49,1.49,0,0,1,0-.21.21.21,0,0,1,0-.11,2.84,2.84,0,0,1,4.26-2.13l.16.09a3.86,3.86,0,0,1,.94,1.11c5.92,8.25,23.13,33.39,23.13,33.39a6.09,6.09,0,0,0,1,1.11,5.87,5.87,0,0,0,1.25.85,10.81,10.81,0,0,0,10.75-1.34,12.34,12.34,0,0,0,4.91-6.31,6.86,6.86,0,0,0-.63-6Z"/></g></g></g><g id="Group_1947" data-name="Group 1947"><g id="Group_15-2" data-name="Group 15-2"><g id="Group_12" data-name="Group 12"><path id="Path_47" data-name="Path 47" class="cls-3" d="M166.62,308.93h-34a3.62,3.62,0,0,0-3.62,3.62h0v80.11a3.62,3.62,0,0,0,3.62,3.62h6.26a3.63,3.63,0,0,0,3.63-3.62h0V361.22a3.62,3.62,0,0,1,3.61-3.63H164.8a3.62,3.62,0,0,0,3.62-3.62h0v-5.53a3.62,3.62,0,0,0-3.62-3.62H146.13a3.63,3.63,0,0,1-3.62-3.63V325.32a3.62,3.62,0,0,1,3.62-3.62h20.5a3.62,3.62,0,0,0,3.62-3.62h0v-5.53A3.61,3.61,0,0,0,166.62,308.93Z"/><path id="Path_48" data-name="Path 48" class="cls-3" d="M200.23,350.51v-3.73a4,4,0,0,0-4-4,4.36,4.36,0,0,0-.51,0,18.45,18.45,0,0,0-11,4.95,4,4,0,0,0-4-4h-4.51a4,4,0,0,0-4,4h0v44.53a4,4,0,0,0,4,4h4.5a4,4,0,0,0,4-4V369.15q0-8.26,3.77-11.55a14.61,14.61,0,0,1,8.2-3.1A4,4,0,0,0,200.23,350.51Z"/><path id="Path_49" data-name="Path 49" class="cls-3" d="M300.05,350.26a27.54,27.54,0,0,0-47,19.74,26.8,26.8,0,0,0,7.78,19.59,27.09,27.09,0,0,0,20.2,7.91,28.37,28.37,0,0,0,9.19-1.46,26.73,26.73,0,0,0,6.81-3.22,27.68,27.68,0,0,0,4.57-4.08c.2-.23.42-.49.64-.77a3.9,3.9,0,0,0-.61-5.49h0a3.7,3.7,0,0,0-.66-.42l-4.2-2.15a3.93,3.93,0,0,0-4.65.82,17.64,17.64,0,0,1-3.53,3.09,14.3,14.3,0,0,1-7.3,1.77,16.59,16.59,0,0,1-12.1-4.49c-1.56-1.48-1.36-3.9.76-4.3l34.54-6.6a4.09,4.09,0,0,0,3.24-4.66A26.49,26.49,0,0,0,300.05,350.26Zm-8.3,12.58-23.92,4.57a1.53,1.53,0,0,1-1.77-1.22,1.73,1.73,0,0,1,0-.6,13.84,13.84,0,0,1,4.39-7.51,14.7,14.7,0,0,1,10.1-3.66,13.58,13.58,0,0,1,12.18,6.09,1.52,1.52,0,0,1-.43,2.1,1.62,1.62,0,0,1-.56.23Z"/><path id="Path_50" data-name="Path 50" class="cls-3" d="M243.89,350.26a27.54,27.54,0,0,0-47,19.74,26.8,26.8,0,0,0,7.78,19.59,27.09,27.09,0,0,0,20.2,7.91A28.37,28.37,0,0,0,234.1,396a26.73,26.73,0,0,0,6.81-3.22,27.68,27.68,0,0,0,4.57-4.08c.2-.23.42-.49.64-.77a3.9,3.9,0,0,0-.62-5.49,4.41,4.41,0,0,0-.66-.43l-4.2-2.14a3.91,3.91,0,0,0-4.65.82,18.21,18.21,0,0,1-3.53,3.09,14.44,14.44,0,0,1-7.3,1.76,16.55,16.55,0,0,1-12.1-4.48c-1.57-1.48-1.37-3.9.75-4.31l34.54-6.6a4.08,4.08,0,0,0,3.24-4.66A26.42,26.42,0,0,0,243.89,350.26Zm-8.3,12.58-23.92,4.57a1.51,1.51,0,0,1-1.76-1.81,13.87,13.87,0,0,1,4.39-7.52,14.7,14.7,0,0,1,10.1-3.66,13.59,13.59,0,0,1,12.18,6.09,1.52,1.52,0,0,1-.43,2.1h0a1.6,1.6,0,0,1-.56.22Z"/><rect id="Rectangle_3" data-name="Rectangle 3" class="cls-3" x="310.03" y="308.92" width="12.53" height="87.36" rx="1.93"/><path id="Path_51" data-name="Path 51" class="cls-3" d="M375.91,343.72h-4.5a4,4,0,0,0-4,4h0l-1.7-1.34a20.6,20.6,0,0,0-5.48-2.56,26.16,26.16,0,0,0-8.51-1.33A25.12,25.12,0,0,0,333,350.23a29.69,29.69,0,0,0,0,39.55,25.12,25.12,0,0,0,18.74,7.72,25.52,25.52,0,0,0,8.7-1.46,24.12,24.12,0,0,0,5.22-2.31,14.61,14.61,0,0,0,1.77-1.46h0a4,4,0,0,0,4,4h4.51a4,4,0,0,0,4-4V347.74a4,4,0,0,0-4-4h0Zm-12.29,37.66a15.74,15.74,0,0,1-21.41,0,17.32,17.32,0,0,1,0-22.75,15.74,15.74,0,0,1,21.41,0,17.28,17.28,0,0,1,0,22.75Z"/></g></g><g id="Group_1396" data-name="Group 1396"><path id="Path_1859" data-name="Path 1859" class="cls-4" d="M291.86,402.44a33.62,33.62,0,0,1-5.59,7.79.14.14,0,0,1-.12-.06h-.06c-.41.45-.87.91-1.38,1.37s-.93.84-1.27,1.13-.89.7-1.67,1.24-1.24.89-1.41,1-.74.5-1.72,1.13-1.49,1-1.53,1-.15-.06-.22-.18-.13.08-.06.24a1.84,1.84,0,0,0-1.24.49c-1.51.28-2.53.51-3,.67a1,1,0,0,0-.28-.37.44.44,0,0,0,.08.25.32.32,0,0,1,0,.3.52.52,0,0,0-.11-.1l-.17,0c-.19,0-.25-.06-.17-.18a3,3,0,0,1-.74-.06.32.32,0,0,0-.14.27.41.41,0,0,0,.09.34,4.76,4.76,0,0,0-.31,1c-.1.41-.18.73-.26,1s-.14,1-.31,2.16-.28,1.91-.34,2.4-.13,1.32-.23,2.5a9,9,0,0,0,0,2.43h.06v.06a2,2,0,0,0,.06.49,3.86,3.86,0,0,0,.17.55,3.82,3.82,0,0,0,.17.42c-.34.49-.7.71-1.08.67-.15,0-.22.06-.22.18a2.27,2.27,0,0,0-.94-.51l-.82-.28a1.22,1.22,0,0,1-.45-.33,2.8,2.8,0,0,1-.34-.61,4.41,4.41,0,0,0-.28-.58,15.25,15.25,0,0,1-.22-2.43.6.6,0,0,0-.06-.19.55.55,0,0,1-.06-.18h.23a.58.58,0,0,1-.11-.24.82.82,0,0,0-.12-.25.3.3,0,0,1,.06-.18.23.23,0,0,0,.06-.12,2.55,2.55,0,0,1-.12-.67h.23a4.06,4.06,0,0,1-.06-.85,6.44,6.44,0,0,0-.05-1,1,1,0,0,1,.2.15c.05.07.1.1.14.1q-.12-.3,0-.3a.74.74,0,0,1-.12-.61.9.9,0,0,1,.29-.61c0-.08-.14-.12-.29-.12s0-.09.14-.15.13-.14.09-.22v.12a.05.05,0,0,0,.06.06v-1.15l.05-.06c0,.08.08.1.11.06a1.8,1.8,0,0,1-.08-.76c0-.35.12-.54.31-.58l-.11-.49h.17a.46.46,0,0,0-.11-.3c.15-.16.18-.26.11-.3l-.06-.06v-.06c.08-.16.15-.22.23-.18a1.17,1.17,0,0,1,.17-1H267s0-.13,0-.27,0-.23.05-.27a1.07,1.07,0,0,0-.56-.37.4.4,0,0,1,.05-.24,2,2,0,0,1-.5-.46,1.17,1.17,0,0,0-.51-.4.3.3,0,0,0,0-.36.59.59,0,0,1-.14-.37,4.57,4.57,0,0,0,2,.67,1.59,1.59,0,0,1,.2-.55c.13-.24.18-.4.14-.48a.52.52,0,0,1-.05-.55,1.16,1.16,0,0,0,.05-.61.71.71,0,0,0,.23-.58,2.09,2.09,0,0,1,.11-.7l.06.06a.13.13,0,0,0,.19,0l0,0a8.18,8.18,0,0,0-.28,1.46c.3-.24.4-.75.28-1.52q.12-.06.12-.42a2.88,2.88,0,0,0,.17-.64,3.71,3.71,0,0,1,.11-.58.37.37,0,0,0-.23.24,1.84,1.84,0,0,0-.05.52v.46a.16.16,0,0,0-.09.18.33.33,0,0,1,0,.24s-.06,0-.08-.09-.07-.07-.14,0a3.58,3.58,0,0,1,.11-.73,3,3,0,0,0,.11-.79s.1,0,.17-.12.17-.16.17,0l.17-.92a.32.32,0,0,0-.11.28.43.43,0,0,1-.06.27c-.07,0-.1-.07-.08-.09a.64.64,0,0,0,.06-.18,2.46,2.46,0,0,0,0-.28h0a.74.74,0,0,1,.06-.6,2,2,0,0,0,.17-.67c-.08,0-.11.08-.11.24-.08,0-.06-.24.05-.61v.3a.55.55,0,0,0,.23-.33c0-.15,0-.22-.23-.22q.35-.24.06-.36a.17.17,0,0,0,.14-.21h0a.29.29,0,0,1,.09-.27l0,.18a.75.75,0,0,1,.23-.61c0-.08,0-.1-.11-.06l-.12.06a1.85,1.85,0,0,0,.14-.69.79.79,0,0,1,.2-.58q.06-.12,0-.15a.12.12,0,0,1-.05-.1c.07,0,.11,0,.11-.06s-.07-.23,0-.45a1.91,1.91,0,0,0,.14-.52s-.08.06-.11.18a.11.11,0,0,1-.12.12,2.08,2.08,0,0,0,.12-.3c0-.2.05-.3.16-.3q0-.24.12-.18.06-.18-.06-.18c-.07,0-.11,0-.11-.12s0-.06.11-.06a.36.36,0,0,1,.17-.07s0-.1-.11-.18a.11.11,0,0,1-.07-.16v0c.08,0,.11,0,.11.06a.08.08,0,0,0,.1,0l0,0a1.9,1.9,0,0,1-.17.85c.11,0,.18-.17.2-.39a.78.78,0,0,1,.08-.4s0-.06-.11-.06a6.9,6.9,0,0,1-.06-1.28.23.23,0,0,0,.23.12L270,401a.57.57,0,0,1,.11-.22q.12-.15,0-.21c.3,0,.38-.18.23-.55l-.11-.06c0-.12,0-.18,0-.18s.17,0,.17-.12-.07-.14-.22-.18h.28c0-.13-.09-.19-.28-.19l.34-.36a.66.66,0,0,1,.17-.92c-.12,0-.14-.2-.09-.48s.09-.45.09-.49a.15.15,0,0,1,.11-.06h.06c-.08-.08-.14-.08-.17,0a1.44,1.44,0,0,0,.08-.46c0-.2.05-.4.09-.61a.62.62,0,0,1,.22-.39c-.11,0-.14-.12-.08-.37a2.67,2.67,0,0,0,.08-.48,4.82,4.82,0,0,0-1.07,1.22.21.21,0,0,1-.11,0s-.08,0-.12,0a8.73,8.73,0,0,1-.87,1.36,7.61,7.61,0,0,0-.88,1.44.4.4,0,0,1,.09.21.42.42,0,0,0,.14.27c-.08.2-.08.35,0,.43-.15,0-.23,0-.23.06a2.22,2.22,0,0,1-1.3-.49,8.13,8.13,0,0,1-.51-.91,4.52,4.52,0,0,0-.56-.92v-.67a4.22,4.22,0,0,0,.68-.88,3.24,3.24,0,0,1,.73-.88v-.18h.23c.07,0,.11-.16.11-.37a13.94,13.94,0,0,0,1.24-1.19,11.34,11.34,0,0,1,1.13-1.06,1.44,1.44,0,0,0,.68-1.22l.06.13a4.47,4.47,0,0,1,.62-1.95h-.06a.07.07,0,0,1-.09,0l0,0a5.16,5.16,0,0,1,.2-.67,7.36,7.36,0,0,0,.25-.92,2.48,2.48,0,0,0,.76-.18,1.33,1.33,0,0,1,.88-.06,1.67,1.67,0,0,1,.28-.18l.4,0,.57.06a1.09,1.09,0,0,1,.48.21.78.78,0,0,1,.31.49,1.55,1.55,0,0,0,.51-.18,1.13,1.13,0,0,1,.51-.19,7.36,7.36,0,0,1,1.27-.76,21.34,21.34,0,0,1,2.06-.79,16,16,0,0,0,1.58-.58,10.73,10.73,0,0,0,1.58-.3s.08,0,.11.09.08.09.12.09.05-.06.05-.18a2,2,0,0,0,.77,0,1.05,1.05,0,0,1,.7,0l.06-.12a.22.22,0,0,1,.22,0,9.66,9.66,0,0,0,1.7.12,11.31,11.31,0,0,1,6.83,6.87q1,2.93-.4,8.4A9.56,9.56,0,0,0,291.86,402.44Zm-25.7,23.43H266a.31.31,0,0,0,.09.22q.08.09,0,.15c.07,0,.11-.06.11-.19s0-.18-.11-.18a1.28,1.28,0,0,0,.11-1,4.14,4.14,0,0,1-.09.46,1.37,1.37,0,0,0,0,.57Zm0,.86c0-.17,0-.25-.12-.25s0,0,0,.12,0,.13.08.13Zm.11.55a.41.41,0,0,0-.23-.37c0,.24.08.36.23.36Zm.11-3.11c0-.12,0-.24,0-.36a1.86,1.86,0,0,1,.06-.34q0-.09-.09-.21a2.78,2.78,0,0,1-.08.49c-.06.24,0,.38.08.42Zm0-1c.08,0,.13-.13.17-.37s0-.18.06-.18a.13.13,0,0,0-.14.09.76.76,0,0,0,0,.21.54.54,0,0,1-.06.25Zm.11-2.5a.42.42,0,0,0,.12-.3q0,.24-.12.3Zm.12,1.64v-.42a.25.25,0,0,0-.07.35A.23.23,0,0,0,266.61,422.34Zm.11-1.1a.57.57,0,0,0-.06-.36.54.54,0,0,1-.05.21c0,.11,0,.16.11.16Zm-.11.37h.05v-.13h-.05Zm.17-1.22h-.06a.25.25,0,0,1,0,.24.6.6,0,0,0-.06.19c.08,0,.13-.07.15-.19a.33.33,0,0,0,0-.24c.07,0,.11-.15.11-.34a.63.63,0,0,1,.06-.33c-.12,0-.17.23-.17.67Zm.17-.79a5.48,5.48,0,0,0,.11-1.34c-.08.86-.12,1.3-.12,1.34Zm.17,2.19h.05v-.18h-.05Zm.05-3.9a.27.27,0,0,1,.06-.12.17.17,0,0,0,.11-.18.19.19,0,0,0-.17.12c0,.09,0,.15,0,.19Zm.17-.42a.05.05,0,0,1,.06-.06.12.12,0,0,0,0-.09s-.05,0-.08,0,0,.13,0,.13Zm.34,1.76c-.15,0-.22,0-.22.06s.22,0,.22-.05Zm.06-4.08.28-1.21a7.43,7.43,0,0,0-.28,1.22Zm.28-1.33s-.09,0-.17,0Zm.45-3.9a.17.17,0,0,1-.05.12v.12a.15.15,0,0,1-.09-.18c0-.07.06-.09.14-.05Zm-.05,5.05a1.49,1.49,0,0,1,0-.21.22.22,0,0,0,0-.21.26.26,0,0,0-.06.21.33.33,0,0,0,.05.22Zm.28-1.52v-.12c.07-.16.09-.27.05-.3-.22.2-.24.35-.05.43Zm.62-6.27h-.11v.3h-.06v.61h-.06a.73.73,0,0,1-.14.37c-.1.16-.12.28-.08.36h-.06V409a.31.31,0,0,0,.06.19A.58.58,0,0,1,269,409c.06-.1,0-.15-.08-.15.07,0,.17-.24.28-.73a.73.73,0,0,0,.06-.61h.11v-.3a1,1,0,0,0,.08-.3,1,1,0,0,0,0-.24c-.08,0-.11.22-.11.55Zm-.23,4.44v-.24a.28.28,0,0,1-.08.15c-.06.07,0,.1.08.1Zm.06-.42a.55.55,0,0,1,.06-.18s0-.08-.06-.13Zm.4-5.48a1.08,1.08,0,0,0-.11.4c0,.22,0,.35,0,.4a1.06,1.06,0,0,1,.05-.31l.09-.27a.37.37,0,0,0,0-.21c.09-.3.17-.61.23-.92-.16.09-.24.39-.24.92Zm.45-2.13a1.43,1.43,0,0,0-.22,1.1c0-.16.07-.34.11-.55s.07-.38.11-.54Zm-.22,3.65h.11v-.06h-.11Zm.28-5.54h.11v-.18h-.11Zm.17-1.46c.11.12.07.19-.11.19v-.13a.13.13,0,0,1,.11-.05Zm0,1.77h-.06s0,.06-.05.06v.12c.06,0,.11-.05.11-.18Zm.11-.67a.6.6,0,0,1,.06-.19q.06-.18-.06-.18s0,.12,0,.22-.05.16,0,.16Zm.17-.55q.35-.36,0-.36Zm.28-1.58a1.05,1.05,0,0,1,.06-.24,1.27,1.27,0,0,0,.06-.28.73.73,0,0,0-.06-.21.51.51,0,0,1-.09.27.58.58,0,0,0-.08.22.53.53,0,0,0,.11.24Zm.06-8.83v-.3c-.12.21-.12.31,0,.31Zm-.06,7.13h.06v-.13h-.06Zm.06.85c.11-.25.11-.37,0-.37a.63.63,0,0,1,0,.19.17.17,0,0,0,0,.18Zm.06-.85v.18c.07,0,.13,0,.16-.09s0-.15-.05-.15,0,.06-.12.06Zm3.61,15.7a.59.59,0,0,0,.48-.12c.17-.13.31-.14.42-.06a.52.52,0,0,1,.12-.34.54.54,0,0,0,.11-.27v.24a1.15,1.15,0,0,0,.62-.36.08.08,0,0,0,0,.06h0s.07-.05.11-.16.08-.15.11-.15c0,.16,0,.25.06.25,0-.25.13-.51.51-.8v.13c0-.09.21-.13.51-.13,0-.12,0-.22-.17-.3a.34.34,0,0,1,.2,0,.47.47,0,0,0,.17,0c.05,0,.08,0,.08-.06-.15,0-.22-.06-.22-.18a10.36,10.36,0,0,0,1.13-.73v.24c-.15,0-.36.15-.62.43-.15,0-.23,0-.23.12.19,0,.26,0,.23-.12h.05l.12.06a.27.27,0,0,1,.2-.3.38.38,0,0,0,.25-.18.61.61,0,0,0,.57-.43q0-.18-.06-.18c0-.08,0-.12.11-.12a.32.32,0,0,1,.23.06l-.06-.13v-.12a.9.9,0,0,0,.37-.3.8.8,0,0,1,.42-.3c.15.08.25.1.29.06s0-.12-.06-.12a.27.27,0,0,1-.06-.12s.12,0,.23,0,.17,0,.17-.16h.11a.07.07,0,0,0-.05-.06h0a.06.06,0,0,0,0,.06c-.15.09-.23.09-.23,0a.6.6,0,0,1,.51-.24l-.11-.06.11-.06h.28v-.06h.12v-.12l.05-.06a.25.25,0,0,1-.05-.19,4.76,4.76,0,0,0,.56-.54,2.26,2.26,0,0,1,.68-.55,3.37,3.37,0,0,1,1-1,1.2,1.2,0,0,0-.17.21,1.59,1.59,0,0,0-.17.24.2.2,0,0,0,0,.21,1.9,1.9,0,0,1,.22-.33,1.23,1.23,0,0,0,.23-.4l-.06.06h0c0-.16,0-.24.17-.24s.05.12.17.12v-.18c.71-.57,1.05-1,1-1.4a8.53,8.53,0,0,0,1.36-1.64l.06.12.05.06.06-.12a.28.28,0,0,0,0-.25q.16,0,.06-.12a.14.14,0,0,1-.06-.12,3.16,3.16,0,0,0,.48-.55,2.79,2.79,0,0,1,.48-.55c0,.09,0,.13.06.13.11-.17.11-.25,0-.25a22.72,22.72,0,0,0,2.65-5.72,21.7,21.7,0,0,0,.34-4.62q-1.64-2.68-6-2.5h-.05a.27.27,0,0,0-.29-.07,5.29,5.29,0,0,0-1,.19,3.26,3.26,0,0,1-1.16.12q0,.18-.06.18l-.22-.12a15.73,15.73,0,0,0-6.39,2.86,51.93,51.93,0,0,1-.87,7q-.83,4.65-1,6.54s-.09.08-.17.25q-1,5.71-1.47,7.79a1.9,1.9,0,0,1-.11.82c-.12.38-.1.64.06.76,1.13-.53,1.75-.81,1.86-.85a2.67,2.67,0,0,1-1.16.7c-.58.22-.91.35-1,.4a6.29,6.29,0,0,0,2.75-1.35Zm-1.69,4.87q-.12,0-.12.06c.07,0,.11,0,.11-.06Zm1.69-4.87-.17.06c-.11.08-.17.1-.17.06a1,1,0,0,1,.68-.37s-.06.09-.17.13-.18.08-.18.12Zm.57-.37a.5.5,0,0,1,.22-.21c.11-.06.19-.07.23,0a.17.17,0,0,0-.12.06Zm.79.19h.05V413h-.05Zm.4-.73c-.19,0-.29-.06-.29-.19a.2.2,0,0,0,.15-.06.1.1,0,0,1,.14,0Zm.34-.55q0,.18-.12.18c0-.12,0-.18.1-.18Zm.62-.49c.15,0,.19,0,.11.12h-.11Zm2.09-1.4c-.23.12-.34.22-.34.3a.59.59,0,0,0,.33-.29Zm.62-.3c.07,0,.11-.06.11-.18s-.12.06-.12.18Zm1.58-1.34a.18.18,0,0,1-.2,0q-.09-.06-.09.06a.16.16,0,0,1,.09-.12.13.13,0,0,0,.08-.12c.07,0,.11.06.11.18Zm.45-.55v.19s.08,0,.12-.07,0-.24-.06-.24,0,.13-.07.13Zm.28,1s-.05,0-.05.06,0,0,0-.06Zm.34-1.46c.12,0,.19,0,.23-.19s0-.08-.11-.12-.09.11-.13.31Zm2-2.2a.23.23,0,0,1-.17.25.25.25,0,0,0-.17.24c-.07-.08-.1-.13-.08-.15a1,1,0,0,1,.2-.15Zm.23-.24c0,.17-.08.24-.23.24l.11-.12c0-.08.07-.11.11-.11Zm0,0c0-.08.07-.12.22-.12a.3.3,0,0,1-.23.13Zm.28-.42q.12,0,0,.12Zm.56-.3c-.18,0-.28.06-.28.18s.16-.07.27-.19Zm.51-.74h.17s0,0,0-.06h-.05c-.09,0-.13,0-.13.06Zm.34-.36c-.08,0-.11.06-.11.18s.1-.06.1-.18Zm.28-.67c0,.08,0,.08,0,0Zm1-1.34q0-.12.06-.12c0,.08,0,.12-.07.12Zm4.13,1.52h.05c0,.09,0,.13-.05.13Zm.62-1.15-.06.12a.05.05,0,0,1-.05-.05h0s0-.06.05-.06Z"/><path id="Path_1860" data-name="Path 1860" class="cls-4" d="M296.89,403.11c.07,0,.13,0,.16-.09s0-.15-.11-.15a.76.76,0,0,1,.31-.28.6.6,0,0,0,.31-.4c.12,0,.15.05.12.13s0,.12,0,.12a1.42,1.42,0,0,0,.34-.55h1s.06-.06.06-.18a3.72,3.72,0,0,1,1.75-.12,2.22,2.22,0,0,1,1.58.66,1.75,1.75,0,0,0,.46.67,2.89,2.89,0,0,1,2.65-.12.54.54,0,0,0,.4.37,7.75,7.75,0,0,1,0,1.18c0,.27-.06.66-.11,1.19s-.08.85-.09,1.28c0,.16,0,.43,0,.79s0,.63,0,.79a95.86,95.86,0,0,0-.17,13.45.14.14,0,0,1,0,.18h0a.14.14,0,0,0-.07.16v0a.92.92,0,0,0,.46.7.6.6,0,0,1,.28.75,1.6,1.6,0,0,0-.31.1l-.43.15c-1.58-.33-2.61-1.54-3.1-3.65a1.08,1.08,0,0,1,.2.45,2.44,2.44,0,0,0,.14.46,31.61,31.61,0,0,1-.68-8.4,3.32,3.32,0,0,0-.79,1.16,8.49,8.49,0,0,1-.68,1.21,12.25,12.25,0,0,1-4.4,5.6,3,3,0,0,1-2.55.67,1.82,1.82,0,0,0-.9-.3c-2.11-1.58-2.88-3.41-2.31-5.47.07,0,.11.08.11.24a12,12,0,0,0,.42-1.64,6.07,6.07,0,0,1,.6-1.77,22.13,22.13,0,0,1,2.82-6,.22.22,0,0,0-.22,0A12.57,12.57,0,0,1,296.89,403.11ZM290.44,415c.12.4.06.61-.16.61a.54.54,0,0,0,.05-.28.45.45,0,0,1,.12-.33Zm.17-.67v-.06a.18.18,0,0,1-.05-.12c.08,0,.11,0,.11.06s0,.12.06.12Zm0,0a.17.17,0,0,1,0,.24.44.44,0,0,0-.08.25v-.49Zm.12-.49c0,.2,0,.29-.12.25a.25.25,0,0,1,.12-.24Zm0,0a1,1,0,0,1,0-.24,1.1,1.1,0,0,0,0-.18.35.35,0,0,1,.06.24c0,.12,0,.19-.11.19Zm.22-1q.18,0,.06.18a.6.6,0,0,0-.06.19Zm.29-1c.11,0,.14.09.08.25a1.11,1.11,0,0,0-.08.3c-.08,0-.1-.13-.06-.28a1.18,1.18,0,0,0,.06-.27Zm0,1.4v-.06q0-.12-.06-.06T291.24,413.15Zm1.07-3.95c.08,0,.11,0,.11.12a.17.17,0,0,1-.11.18ZM293,408s.05-.06.17-.06-.06.06-.17.06Zm.28-.49h.17v.06h-.17Zm7.85-4.32a.23.23,0,0,0-.05-.18.16.16,0,0,1-.06-.12.67.67,0,0,0-.62.18.51.51,0,0,0-.12.55,3,3,0,0,0-.62.91,4.45,4.45,0,0,1-.56.91c-.19.17-.87,1-2,2.44-1.31,2.51-2.22,4.3-2.71,5.35a7.54,7.54,0,0,1-.28,1.25c-.15.51-.25.82-.28.94s.05,0,.05.07l.06.12a6,6,0,0,0-.39,3.1.78.78,0,0,1,.5-.19,40.92,40.92,0,0,0,3.73-5.41v-.3H298a6.16,6.16,0,0,1,.71-1.31,6.11,6.11,0,0,0,.7-1.37.05.05,0,0,1,.06-.06h.17c0-.37.09-.55.28-.55a.23.23,0,0,0-.06-.12l-.06-.06a2.68,2.68,0,0,0,.6-1,2.84,2.84,0,0,1,.59-1c.15-.45.4-1.12.74-2s.58-1.6.73-2.13a4.54,4.54,0,0,0-.51.09q-.39.09-.51,0c.12,0,.17,0,.17-.12Zm-7.45,3.77h.11V407h-.11Zm1.13-1.28c-.19,0-.29.09-.29.25,0,0,.13-.08.29-.25,0,0,.05,0,.05-.06a.21.21,0,0,0-.05-.12Zm.39-.48s0-.08.12-.12v-.13l-.06.07q-.22.12-.06.18Zm.45,11.56h.06q.23-.12,0-.12a.16.16,0,0,0-.06.13Zm.51-.67q.12-.12,0-.12Zm.23-.42-.06.24s0-.08.09-.12,0-.08,0-.12h.11c.15-.16.15-.25,0-.25a.18.18,0,0,1-.06.13.17.17,0,0,0-.05.12Zm.11-12.11a.16.16,0,0,0,.11-.07l-.11-.12Zm.17,11.62q-.12.12,0,.18Zm.23-.24a.05.05,0,0,0-.06.06.06.06,0,0,0,.06-.06.21.21,0,0,1,.08-.16.86.86,0,0,0,.14-.18.39.39,0,0,0,.06-.15.82.82,0,0,0-.28.49Zm.62-1h-.17c0,.08,0,.13-.06.13v.12h-.06v.12s.06,0,.06-.12.11-.08.11-.25h.12s.07-.06.11-.18a.66.66,0,0,1,.11-.24c-.15,0-.22.14-.22.42Zm.4-12.05v.18a.31.31,0,0,1-.23-.06c0-.12.07-.16.22-.12ZM298,413H298l0,.06a.16.16,0,0,0-.06.12h-.12v.19c.08,0,.12,0,.12-.19L298,413c.22-.37.66-1.12,1.3-2.25A8,8,0,0,0,298,413Zm1.58-2.74a.31.31,0,0,1,.09-.18l.11-.18s0-.09-.09-.13a.42.42,0,0,1-.14.28q-.15.15,0,.21Zm.74-1.52c.07,0,.11-.06.11-.18s-.12.06-.12.18Zm.79-5.6s-.06.06-.06.18c.26,0,.28-.06.05-.18Zm.62,11.69c0-.08.05,0,.05.3,0,0-.05,0-.05-.06Zm.73-11.87h.17v-.12h-.17Zm2.94,19.17c.07,0,.12.06.14.18s.05.19.08.19c-.15,0-.22-.17-.22-.37Z"/><path id="Path_1861" data-name="Path 1861" class="cls-4" d="M313.55,413.34h0a30.61,30.61,0,0,0-1.92,12.53.89.89,0,0,0-.14.52.6.6,0,0,1-.26.52.55.55,0,0,0,.12.24.32.32,0,0,1,0,.3s-.06,0-.08-.09a.13.13,0,0,0-.14-.09c0,.12-.11.2-.34.24l-.82.13a.85.85,0,0,0-.65.3c-.11,0-.14-.09-.09-.16a.24.24,0,0,0,.09-.15c-.49,0-.92-.49-1.3-1.34a.75.75,0,0,1-.59-.21,1.06,1.06,0,0,0-.6-.27c.3-.41.38-.71.23-.92q-.06,0-.06.18a.22.22,0,0,1,0,.19s-.08,0-.2,0a45.08,45.08,0,0,1,.57-5.18V421c-.19,1.5-.31,2.55-.34,3.16a19.7,19.7,0,0,0,.34-3.16c0-.12.11-.43.22-.92a5.43,5.43,0,0,0,.17-1.21,1.82,1.82,0,0,0-.2.61c-.06.28-.1.48-.14.61h-.06c0-.45.14-1.13.31-2a19.91,19.91,0,0,0,.32-2.17q.39-9.48.28-12l1.07-.46a4,4,0,0,1,1-.37,11.62,11.62,0,0,1,1.18,0c.15.25.42.77.8,1.59l1.35-1.83v.24c-.11,0-.17.06-.17.19s-.11.08-.11.24c-.15.16-.23.26-.23.3a2.22,2.22,0,0,0-.45.79,1,1,0,0,0,.45-.79c.19-.12.27-.22.23-.3s.11-.08.11-.24c.11,0,.17-.07.17-.19s.11-.08.11-.24.27-.26.46-.67c-.15,0-.3.27-.46.67h-.11q1-1.51,1.47-2.19a10,10,0,0,1,1.61-1.58,4.69,4.69,0,0,1,2.23-1.1c2.37-.4,4.07-.2,5.08.61,0,.08.19.31.46.7a3.14,3.14,0,0,1,.48,1,3.25,3.25,0,0,1,0,.88c-.15-.08-.33,0-.51.19a.73.73,0,0,1-.17.79,1,1,0,0,0-.34.61c0-.13-.1-.16-.28-.1s-.3,0-.34-.09-.06.1-.06.3a10.3,10.3,0,0,0-1.75-3,15.48,15.48,0,0,0-4.52,5.23A64.88,64.88,0,0,0,313.55,413.34ZM312.19,404l.12-.06s0,.06-.12.06Zm2.32-2.13c.11,0,.17,0,.17-.12s-.1,0-.17.12Z"/><path id="Path_1862" data-name="Path 1862" class="cls-4" d="M340.16,404.21a2.34,2.34,0,0,1,0,.7,1.66,1.66,0,0,0,.09.76,1.21,1.21,0,0,0,.11-.3c.08.08.09.15.06.21a2.21,2.21,0,0,0-.14.24.71.71,0,0,0-.09.28h.11l.06-.07a6.63,6.63,0,0,1-.54,1.86,7.63,7.63,0,0,0-.53,1.68,8,8,0,0,0-1.13,2.55H338l-.54.91c-.24.41-.44.71-.59.92,0,.08.09.06.17-.06s.18-.19.22-.19a27.53,27.53,0,0,1-2.09,3.17v.36l-.84,1.1-1,1.25c-.26.35-.6.74-1,1.19a14.33,14.33,0,0,1-1.19,1.15q-2.88,2.74-5.25,2.8a5.79,5.79,0,0,1-4.24-1.7,5.56,5.56,0,0,1-1.86-3.77,39.36,39.36,0,0,1,.51-7.67,3.06,3.06,0,0,0,.22-.49l.17-.43a.86.86,0,0,1-.05-.42,24.23,24.23,0,0,1,4.8-9.62.74.74,0,0,0,.11-.24.64.64,0,0,0,.06-.18c.11.08.24,0,.4-.16a1.33,1.33,0,0,1,.34-.33c.07,0,.09,0,.05-.06l-.05-.12a6.75,6.75,0,0,1,1.18-.28,4.48,4.48,0,0,0,1.19-.33c1.92-.08,3.05.34,3.39,1.28a4,4,0,0,1,.11,1.15c-.08,2.76-.56,4.4-1.47,4.93a1.27,1.27,0,0,0-1.13.61,1,1,0,0,0-.62.12,27.08,27.08,0,0,1,.31-3.25,14.79,14.79,0,0,0,.2-3.32l-.56.3a22.8,22.8,0,0,0-3,4.75q-.06.18,0,.12s.06,0,.06.12A23,23,0,0,0,322.93,417c-.08,3.21.39,5.19,1.41,6a9.25,9.25,0,0,0,2.32-1.24,12.71,12.71,0,0,0,1.72-1.47c.4-.42,1-1.1,1.75-2s1.29-1.54,1.55-1.83c.42-.61,1-1.45,1.81-2.52s1.52-2.08,2.18-3,1.25-1.84,1.78-2.74c.52-.65,1-1.33,1.47-2C339.52,405.15,339.93,404.53,340.16,404.21ZM320,417.11c.08-.08.06-.2-.05-.37,0,.25,0,.37.05.37Zm4.92-15.4c.08,0,.11-.08.11-.25-.11,0-.15.09-.11.25Zm1.64-1.83a.19.19,0,0,1-.17.06h-.12c.08.09.17.07.29-.05Zm2.14,6.39c.12.12.14.23.06.3a.23.23,0,0,1-.06-.12Z"/><path id="Path_1863" data-name="Path 1863" class="cls-4" d="M339.76,412a1.46,1.46,0,0,0-.23.79,3.68,3.68,0,0,1-.11.73,11.49,11.49,0,0,1-.12,1.43c-.06.43-.09.87-.11,1.31s.08.77,0,.85a6.7,6.7,0,0,0,.79,1.82,15.87,15.87,0,0,0,2.72-1.88l6.55-8.1c.15,0,.21.12.17.37a3.94,3.94,0,0,0,0,1c0,.53-.07.83-.25.91,0,.05.05.07.17.07-.08.16-.19.42-.34.79s-.29.67-.4.91l.09,0a.1.1,0,0,0,0-.09s0,0,.06,0a7.08,7.08,0,0,1-.34.91,7.22,7.22,0,0,0-.34.92l-.59,1a11.09,11.09,0,0,0-.71,1.37A14.74,14.74,0,0,1,343,420.7a2.47,2.47,0,0,0-1.13.3,7,7,0,0,1-3.45-1.1c-.12-.18-.23-.36-.34-.55a1.31,1.31,0,0,1-.36-.21.56.56,0,0,0-.31-.15q-1.71-1.53-1.3-4.69a24.09,24.09,0,0,1,5-12.6,2.64,2.64,0,0,0,1-.85,3.16,3.16,0,0,1,1.07-.92.28.28,0,0,0,.23.06.29.29,0,0,1,.22.07,17.08,17.08,0,0,1,2.94-.25,2.07,2.07,0,0,1,1.3,1.22,3.54,3.54,0,0,1,.34,2,10.68,10.68,0,0,1-.48,1.58c-.21.53-.39.95-.54,1.28a10.69,10.69,0,0,1-.79,1.34c-.37.57-.62.93-.73,1.1l-.93,1.22-.82,1C342.28,411.84,340.89,412.32,339.76,412Zm-3.56,3.28s.07,0,.08-.12a1.24,1.24,0,0,0,0-.27.67.67,0,0,1,.06-.28q-.12,0-.12.06c0,.13-.05.17-.05.13a.32.32,0,0,1,0-.3c0-.13,0-.2,0-.25s-.14.22-.09.52a4.54,4.54,0,0,1,.09.51Zm0-1.46c.08,0,.15-.1.22-.3h-.22Zm.17-.48a.45.45,0,0,1,0-.28,2.08,2.08,0,0,1,.06-.24.16.16,0,0,0,0-.16,1.3,1.3,0,0,1-.09.4c-.06.18,0,.28.09.28Zm.17-1.34-.11.54.05-.06a.57.57,0,0,0,.12.18c0-.16.12-.46.25-.91a4,4,0,0,0,.2-1c-.08,0-.14.2-.17.49s-.13.24-.17.24-.17.16.05.24c0,0,0,.07-.14.09s-.12.07-.08.16Zm-.06.48v-.06a.06.06,0,0,1,0-.06h0q0,.12-.06.12Zm0,.73q.12.12.12-.06t-.12-.18Zm.06-1.21c.11,0,.17,0,.17.06a.14.14,0,0,0-.11-.06Zm1.41-4.26c-.11.2-.15.3-.11.3V408c0-.07,0-.12,0-.12a1.54,1.54,0,0,0-.14.55,1.71,1.71,0,0,1-.14.55v-.12l-.12.12h.12a.93.93,0,0,0-.12.33.8.8,0,0,1-.17.4,1.17,1.17,0,0,1,.09-.24c.05-.12,0-.2-.09-.24a1,1,0,0,1,0,.24.39.39,0,0,0,0,.3,2.44,2.44,0,0,0-.46,1.52q.35-1,2.1-5.17a1.7,1.7,0,0,0-.34.12,4.37,4.37,0,0,1-.12.49,1.45,1.45,0,0,1-.22.55l.05-.13c0-.08,0-.12-.05-.12a.81.81,0,0,1-.11.27,2.1,2.1,0,0,0-.15.3.17.17,0,0,0,0,.17Zm.12-.37s.05.06.05.18v.06s-.05-.08-.05-.24Zm.56-1.34c.19-.2.24-.32.17-.37s0,.09-.11.13-.1.2-.06.24Zm.51-.37c0-.2-.08-.3-.23-.3,0,.21.08.3.23.3Zm.05-.36.06-.18q0-.12-.06-.12a.27.27,0,0,1,0,.12.28.28,0,0,0,0,.18Zm.4-.91h0a.74.74,0,0,0-.06.36h-.05a.14.14,0,0,0-.09.16.14.14,0,0,0,.14.09v-.25a.89.89,0,0,0,.11-.36c.12,0,.21-.17.29-.37-.08,0-.18.12-.29.37Zm5,1.7a8.44,8.44,0,0,1,.68-1.46,8.9,8.9,0,0,0,.68-1.47,6.11,6.11,0,0,1,0-.73,2.24,2.24,0,0,0,0-.73c-.26-.64-.58-.87-1-.66a13.66,13.66,0,0,0-4.29,6.69q-.12.06,0,.18a.27.27,0,0,1,.06.12,4.23,4.23,0,0,0-.4.83,7.75,7.75,0,0,0-.31,1.1c-.09.42-.18.76-.25,1a4.73,4.73,0,0,0,1.8-1.19,16,16,0,0,0,1.61-2,18.09,18.09,0,0,1,1.33-1.7Zm-4.52-2.38q.12-.12.06-.18H340c0,.13,0,.19.11.19Zm.74-1.21a.15.15,0,0,0,0-.16c0-.06,0-.09-.08-.09,0,.17,0,.25.05.25Zm.05-.25Zm.23-.12c0,.08,0,.12.11.12s0-.11-.12-.11Zm.34-.24-.12-.06,0-.06c0,.08,0,.12.16.12Z"/><path id="Path_1864" data-name="Path 1864" class="cls-4" d="M355.24,421.61c-.27.29-.34.51-.23.67a.14.14,0,0,1-.11-.06h-.06q-.1.18-.48.18a.94.94,0,0,0-.54.13,5.73,5.73,0,0,1-2.31-2.93,1.1,1.1,0,0,0,0-.57,1.88,1.88,0,0,1-.08-.52c-.12-2.11-.16-3.58-.12-4.42.12-1.42.31-2.85.57-4.25.34-2,.55-3.4.62-4.17a1.4,1.4,0,0,1-.06-.86c.19,0,.74-.06,1.64-.18a3.25,3.25,0,0,1,1.75.06c.08.08.18.19.31.3l.31.3a3.77,3.77,0,0,1,.17,1.1,23.5,23.5,0,0,1-.39,2.65c-.23,1.2-.38,2.14-.46,2.83a42.78,42.78,0,0,0-.84,6.57,6,6,0,0,0,.28,2.19C355,420.72,355.05,421,355.24,421.61Zm-2.83-13.7a1.71,1.71,0,0,1,.09-.3q.09-.24-.09-.3c0,.1,0,.2-.05.3s-.06.31.06.31Zm3.06-8s-.1,0-.17-.12a.14.14,0,0,0-.12-.06.66.66,0,0,1-.36.27.44.44,0,0,1-.43,0,.08.08,0,0,0-.08.06s-.07,0-.14,0a1.28,1.28,0,0,1-.91-1,5,5,0,0,1,.37-2.16c.32-1,.48-1.45.48-1.49a1.91,1.91,0,0,1,1.8,0,1.75,1.75,0,0,1,1,1.43,3.45,3.45,0,0,1-1.42,2.73.22.22,0,0,1,0,.19l0,.19Z"/><path id="Path_1865" data-name="Path 1865" class="cls-4" d="M363.94,413.34h0A30.61,30.61,0,0,0,362,425.87a1,1,0,0,0-.15.52.57.57,0,0,1-.25.52.66.66,0,0,0,.11.24.33.33,0,0,1,.06.3s-.07,0-.08-.09a.13.13,0,0,0-.14-.09c0,.12-.12.2-.34.24l-.82.13a.85.85,0,0,0-.65.3c-.12,0-.14-.09-.09-.16a.24.24,0,0,0,.09-.15c-.49,0-.93-.49-1.3-1.34a.75.75,0,0,1-.59-.21,1.06,1.06,0,0,0-.6-.27c.3-.41.38-.71.23-.92q-.06,0-.06.18a.22.22,0,0,1,0,.19s-.08,0-.2,0a47.4,47.4,0,0,1,.56-5.18V421c-.18,1.5-.3,2.55-.33,3.16a18.61,18.61,0,0,0,.33-3.16c0-.12.12-.43.23-.92a5.43,5.43,0,0,0,.17-1.21,2.08,2.08,0,0,0-.2.61c-.06.28-.1.48-.14.61h-.06a20.59,20.59,0,0,1,.32-2c.14-.72.24-1.44.31-2.17q.39-9.48.28-12l1.07-.46a4.16,4.16,0,0,1,1-.37,11.89,11.89,0,0,1,1.19,0c.15.25.41.77.79,1.59l1.35-1.83v.24c-.11,0-.17.06-.17.19s-.11.08-.11.24-.23.26-.23.3a2.22,2.22,0,0,0-.45.79,1,1,0,0,0,.45-.79c.19-.12.27-.22.23-.3s.11-.08.11-.24c.12,0,.17-.06.17-.19s.12-.08.12-.24.26-.26.45-.67c-.15,0-.3.27-.45.67h-.12q1-1.51,1.47-2.19a10,10,0,0,1,1.61-1.58,4.69,4.69,0,0,1,2.23-1.1q3.55-.6,5.09.61c.14.24.29.47.45.7a2.94,2.94,0,0,1,.48,1,2.6,2.6,0,0,1,0,.88c-.15-.08-.32,0-.51.19a.71.71,0,0,1-.17.79,1,1,0,0,0-.34.61c0-.13-.09-.16-.28-.1s-.3,0-.34-.09-.06.1-.06.3a10.3,10.3,0,0,0-1.75-3,15.48,15.48,0,0,0-4.52,5.23A64.88,64.88,0,0,0,363.94,413.34ZM362.58,404l.11-.06S362.66,404,362.58,404Zm2.32-2.13c.11,0,.17,0,.17-.12s-.1,0-.17.12Z"/><path id="Path_1866" data-name="Path 1866" class="cls-4" d="M374.61,403.66c.08.2.19.14.34-.18s.15-.27.11-.31a24.14,24.14,0,0,0,2.66-.55,6.64,6.64,0,0,1,5,4.5,8.57,8.57,0,0,0,.34,2.25,4.16,4.16,0,0,1-.23,1,1.75,1.75,0,0,0-.12,1c-1.35,3.12-2.22,5.07-2.59,5.84-1.4,3-2.94,4.61-4.64,4.93a4.22,4.22,0,0,1-.87,0A3.61,3.61,0,0,1,374,422a2.15,2.15,0,0,0-.56-.12c-2.53-1.79-3.56-4-3.11-6.64a.25.25,0,0,0,0-.24l-.06-.12c.08-.77.3-2.25.68-4.44a19,19,0,0,1,2-5.05,4.89,4.89,0,0,0,.85-1.59A.57.57,0,0,0,374.61,403.66Zm-4.18,13a5.7,5.7,0,0,1,.06-.58,3.72,3.72,0,0,0,0-.67,1,1,0,0,0-.15-.45,2.33,2.33,0,0,1,.06.91,2.62,2.62,0,0,0,0,.79Zm.17,1c0-.13-.06-.19-.17-.19,0,.21.05.27.17.19Zm0-2.8V415c.11.08.17,0,.17-.12a.44.44,0,0,0-.17-.19q-.11-.06,0-.42c.08-.24.06-.37-.06-.37s0,.25-.05.37a1.14,1.14,0,0,0,0,.45C370.48,414.81,370.53,414.84,370.6,414.8Zm-.06-1a.18.18,0,0,0,.23-.06c0-.08-.08-.11-.14-.09A.14.14,0,0,0,370.54,413.76Zm.06,1v-.13a.05.05,0,0,1,.06.06S370.64,414.8,370.6,414.8Zm2.71-9.62h-.06a2.67,2.67,0,0,1-.25.43,1.72,1.72,0,0,0-.25.55h-.06a12.21,12.21,0,0,0-1.13,3h-.11a3,3,0,0,1-.2.88,3.13,3.13,0,0,0-.2,1,7.4,7.4,0,0,0-.34,2.43,5.55,5.55,0,0,1,.17-1.28,6.38,6.38,0,0,0,.17-1.15h.05c0-.17.12-.45.23-.86a9,9,0,0,0,.23-1c.11-.25.3-.71.56-1.4s.47-1.22.62-1.59a8.5,8.5,0,0,0,.57-1h.05q.18-.18,0-.18a.24.24,0,0,0-.05.18Zm.34-.36.17-.13q.12-.18-.06-.24a.27.27,0,0,1-.11.18c-.08.08-.08.15,0,.19Zm.28-.55v.12a.17.17,0,0,0,.12.06q.17-.24-.06-.24a.05.05,0,0,1-.06.06Zm1,12.9v.06a1.4,1.4,0,0,0,.48-.64A1.25,1.25,0,0,1,376,416v-.36a29.53,29.53,0,0,0,2.93-6.45,13.12,13.12,0,0,0,.29-2.5,7.05,7.05,0,0,0-1.19-2.56.26.26,0,0,1-.31,0,.25.25,0,0,0-.25,0,.4.4,0,0,0,.16.28.4.4,0,0,1,.17.33c-.22,0-.37.31-.45.79a.37.37,0,0,0-.25,0,.34.34,0,0,1-.26,0v.31c-.22,0-.42.17-.59.64a2.07,2.07,0,0,1-.37.76c0-.17,0-.25-.06-.25A34.41,34.41,0,0,0,374,418.27a1.65,1.65,0,0,0,.91-1.1Zm.06-.12q0,.12-.06.12t.06-.12Zm0,0s0-.06.05-.06,0,.06-.05.06Zm.84-.61s-.05.06-.05.18.05-.06.05-.18c.38-.37.53-.65.45-.85a7.71,7.71,0,0,1-.45.85Zm.8-1.28q-.18,0-.18.06c.11,0,.18,0,.18-.06Zm.39-.91a1.28,1.28,0,0,0-.39.73.49.49,0,0,0,.16-.16,1.11,1.11,0,0,0,.12-.27,1.82,1.82,0,0,1,.11-.3Zm-.17-.73c-.07.24-.13.36-.17.36l.06-.18c0-.12,0-.18.11-.18Zm.34-.67a.17.17,0,0,1,0,.21.28.28,0,0,0-.08.15q-.23-.06,0-.3a.11.11,0,0,1,.11-.06Zm0,.91h-.06q-.16.18,0,.18l.06-.06v-.12c.34-.37.43-.61.28-.73a.58.58,0,0,1-.14.33.67.67,0,0,0-.14.4Zm.34-1.89c.07.13.1.22.08.28a1.74,1.74,0,0,1-.14.27.74.74,0,0,0-.11.24q-.12-.12,0-.42a1.78,1.78,0,0,0,.14-.36Zm.17.92a.48.48,0,0,1,0-.18c.12-.17.12-.25,0-.25a.36.36,0,0,1-.11.25.12.12,0,0,0,0,.16h0Zm.34-2.2a.37.37,0,0,1,.05.34,2.85,2.85,0,0,1-.2.43,1.07,1.07,0,0,0-.14.39,1,1,0,0,1,.12-.58,1.88,1.88,0,0,0,.17-.57Zm-.06,1.65a.14.14,0,0,1,.06-.12c.07-.12.07-.2,0-.25a.31.31,0,0,1-.06.13q-.17.18,0,.24Zm.11-7.67s.06,0,.06.12-.06,0-.06-.12Zm0,7.06c.15,0,.26-.18.34-.43a1,1,0,0,0,.06-.54,4.26,4.26,0,0,1-.2.51c-.1.22-.16.38-.2.46Zm.06-6.94a.06.06,0,0,1,.06.06c-.05,0-.06,0-.06-.06Zm.06,5.42a.19.19,0,0,1,.16.06.36.36,0,0,1-.22.3.37.37,0,0,1,.08-.18c.06-.08.05-.14,0-.18Zm0-5.36a3.29,3.29,0,0,1,.62,3.17,4.63,4.63,0,0,0-.62-3.17Zm.45,4.45a.77.77,0,0,0-.09.36c0,.2-.06.33-.14.37a.57.57,0,0,1,.23-.73Zm0,1.4a2.84,2.84,0,0,1,.17-.49.83.83,0,0,0,0-.67,1.69,1.69,0,0,1-.17.58c-.11.26-.13.46-.05.58Zm.17-2.68a5.5,5.5,0,0,1-.12,1.28h-.05a4.48,4.48,0,0,1,.05-.64,4.62,4.62,0,0,0,.06-.64Zm.56.55c0-.17-.06-.25-.17-.25,0,.25.06.33.17.25Zm.11-1.83s0,0,0-.06a.05.05,0,0,0-.06-.06s.08,0,.12.12Zm-.11.49h.11V407h-.11Z"/></g></g></g></svg>