<svg xmlns="http://www.w3.org/2000/svg" viewBox="0 0 58.05 78.47"><defs><style>.cls-1{fill:none;}.cls-2{fill:#fac54e;}.cls-3{fill:#fff;}</style></defs><g id="Layer_2" data-name="Layer 2"><g id="Layer_1-2" data-name="Layer 1"><path class="cls-1" d="M53,26.88c-1.25-1-2.56-2.06-2.94-3.5s.22-3.08.81-4.62c.32-.82.9-2.36.68-2.75s-1.82-.66-2.77-.81c-1.62-.25-3.29-.51-4.36-1.58s-1.34-2.75-1.59-4.36c-.15-.95-.39-2.54-.81-2.78s-1.92.37-2.75.69c-1.54.59-3.13,1.2-4.62.8S32.19,6.29,31.17,5c-.65-.81-1.63-2-2.14-2s-1.5,1.22-2.15,2c-1,1.26-2.06,2.56-3.5,2.94s-3.08-.21-4.62-.8c-.82-.32-2.36-.91-2.75-.69s-.66,1.83-.8,2.77c-.26,1.62-.52,3.3-1.59,4.37S10.87,15,9.26,15.2c-.95.15-2.54.4-2.77.81s.36,1.93.68,2.75c.59,1.54,1.2,3.14.8,4.62S6.29,25.87,5,26.88c-.81.65-2,1.64-2,2.15s1.22,1.49,2,2.14c1.26,1,2.56,2.06,2.94,3.5s-.21,3.08-.8,4.62c-.32.83-.91,2.36-.69,2.75s1.83.66,2.77.81c1.62.25,3.3.51,4.37,1.59S15,47.18,15.2,48.79c.15,1,.4,2.54.81,2.78s1.93-.36,2.75-.68A10.61,10.61,0,0,1,22.38,50a3.76,3.76,0,0,1,1,.13c1.44.38,2.49,1.69,3.5,2.94.65.81,1.64,2,2.15,2s1.49-1.22,2.14-2c1-1.26,2.06-2.57,3.5-3s3.08.22,4.62.81c.83.32,2.36.91,2.75.68s.66-1.82.81-2.77c.25-1.62.51-3.29,1.58-4.37s2.75-1.33,4.36-1.58c1-.15,2.54-.39,2.78-.81s-.37-1.92-.68-2.75c-.6-1.54-1.21-3.13-.81-4.62s1.68-2.48,2.94-3.5c.81-.65,2-1.63,2-2.14S53.83,27.53,53,26.88ZM46.82,36a19.12,19.12,0,1,1,1-11,16.61,16.61,0,0,1-1,11Z"/><path class="cls-2" d="M38.44,26.84a1.73,1.73,0,1,0,1.72-1.72A1.73,1.73,0,0,0,38.44,26.84Z"/><path class="cls-2" d="M32.55,31.56a1,1,0,0,1-.39.08,1,1,0,0,1-.87-.52l-1.81-3.3-.21,0a2.33,2.33,0,0,1-.38,0l-2,3.36a1,1,0,0,1-.85.48,1,1,0,0,1-.42-.09L21,29.41l-.1.1L23,36.18H35.58l2.17-6.53a2.11,2.11,0,0,1-.23-.19Z"/><path class="cls-2" d="M29.1,12.71A16.14,16.14,0,1,0,45.23,28.85,16.16,16.16,0,0,0,29.1,12.71ZM43.89,26.84a3.74,3.74,0,0,1-3.73,3.73,3.8,3.8,0,0,1-.59-.06l-2.32,7a1,1,0,0,1-1,.68h-14a1,1,0,0,1-1-.7l-2.21-7a4.17,4.17,0,0,1-.8.09A3.73,3.73,0,1,1,22,26.84a4.17,4.17,0,0,1-.09.8l3.68,1.72L27,27.05a3.72,3.72,0,1,1,4.4.11l1.21,2.21,3.94-1.67a3.49,3.49,0,0,1-.11-.86,3.73,3.73,0,0,1,7.45,0Z"/><path class="cls-2" d="M18.3,25.12A1.73,1.73,0,1,0,20,26.84,1.72,1.72,0,0,0,18.3,25.12Z"/><path class="cls-2" d="M48.35,29a17,17,0,0,0-.5-4,19.16,19.16,0,0,1-1,11A16.82,16.82,0,0,0,48.35,29Z"/><path class="cls-2" d="M29.27,25.84a1.53,1.53,0,0,0,.3,0,.92.92,0,0,1,.36-.1,1.73,1.73,0,1,0-.66.13Z"/><path class="cls-3" d="M43.89,26.84a3.73,3.73,0,0,0-7.45,0,3.49,3.49,0,0,0,.11.86l-3.94,1.67L31.4,27.16a3.74,3.74,0,1,0-4.4-.11l-1.38,2.31-3.68-1.72a4.17,4.17,0,0,0,.09-.8,3.73,3.73,0,1,0-3.73,3.73,4.17,4.17,0,0,0,.8-.09l2.21,7a1,1,0,0,0,1,.7h14a1,1,0,0,0,1-.68l2.32-7a3.8,3.8,0,0,0,.59.06A3.74,3.74,0,0,0,43.89,26.84ZM29.27,22.39a1.73,1.73,0,0,1,.66,3.32.92.92,0,0,0-.36.1,1.53,1.53,0,0,1-.3,0,1.73,1.73,0,1,1,0-3.45ZM16.58,26.84a1.73,1.73,0,1,1,1.72,1.73A1.72,1.72,0,0,1,16.58,26.84Zm19,9.34H23l-2.1-6.67.1-.1,4.61,2.14a1,1,0,0,0,.42.09,1,1,0,0,0,.85-.48l2-3.36a2.33,2.33,0,0,0,.38,0l.21,0,1.81,3.3a1,1,0,0,0,.87.52,1,1,0,0,0,.39-.08l5-2.1a2.11,2.11,0,0,0,.23.19Zm4.58-7.61a1.73,1.73,0,1,1,1.73-1.73A1.73,1.73,0,0,1,40.16,28.57Z"/><path class="cls-3" d="M54.91,24.55c-.76-.61-1.8-1.45-1.93-1.95a6.68,6.68,0,0,1,.71-2.76c.66-1.74,1.42-3.7.48-5.33s-3.06-2-4.91-2.27a6.81,6.81,0,0,1-2.7-.74,6.87,6.87,0,0,1-.74-2.71c-.29-1.85-.62-3.95-2.27-4.9s-3.6-.19-5.33.48a6.68,6.68,0,0,1-2.78.7c-.49-.13-1.32-1.16-1.93-1.92C32.32,1.67,31,0,29,0s-3.3,1.67-4.48,3.15c-.61.75-1.45,1.79-1.94,1.92a6.67,6.67,0,0,1-2.77-.7c-1.74-.67-3.7-1.43-5.33-.48s-2,3.05-2.27,4.9a6.87,6.87,0,0,1-.74,2.71,6.81,6.81,0,0,1-2.7.74c-1.86.29-4,.61-4.91,2.27s-.19,3.59.48,5.33a6.64,6.64,0,0,1,.7,2.77c-.13.49-1.16,1.33-1.92,1.94C1.67,25.73,0,27.08,0,29s1.67,3.29,3.15,4.48c.76.61,1.79,1.44,1.93,1.94a6.88,6.88,0,0,1-.71,2.77c-.67,1.73-1.43,3.7-.48,5.33s3.05,2,4.9,2.26a6.87,6.87,0,0,1,2.71.74,7,7,0,0,1,.74,2.7c.29,1.86.61,4,2.27,4.92s3.59.19,5.33-.48A6.84,6.84,0,0,1,22.61,53c.49.13,1.32,1.17,1.93,1.92,1.19,1.48,2.54,3.15,4.49,3.15s3.29-1.67,4.48-3.14c.61-.76,1.44-1.8,1.94-1.93a6.68,6.68,0,0,1,2.76.71c1.74.67,3.7,1.42,5.34.48s2-3.06,2.26-4.91a6.81,6.81,0,0,1,.74-2.7,7,7,0,0,1,2.71-.75c1.85-.28,4-.61,4.9-2.26s.19-3.6-.47-5.34A6.52,6.52,0,0,1,53,35.45c.13-.49,1.17-1.33,1.92-1.94C56.38,32.32,58.05,31,58.05,29S56.38,25.74,54.91,24.55ZM53,31.17c-1.26,1-2.56,2.06-2.94,3.5s.21,3.08.81,4.62c.31.83.9,2.36.68,2.75s-1.83.66-2.78.81c-1.61.25-3.28.51-4.36,1.58s-1.33,2.75-1.58,4.37c-.15,1-.4,2.53-.81,2.77s-1.92-.36-2.75-.68c-1.54-.59-3.13-1.21-4.62-.81s-2.49,1.69-3.5,3c-.65.8-1.63,2-2.14,2s-1.5-1.22-2.15-2c-1-1.25-2.06-2.56-3.5-2.94a3.76,3.76,0,0,0-1-.13,10.61,10.61,0,0,0-3.62.94c-.82.32-2.36.91-2.75.68s-.66-1.83-.81-2.78c-.25-1.61-.51-3.28-1.58-4.35s-2.75-1.34-4.37-1.59c-.94-.15-2.53-.4-2.77-.81s.37-1.92.69-2.75c.59-1.54,1.2-3.13.8-4.62S6.29,32.19,5,31.17c-.81-.65-2-1.63-2-2.14s1.22-1.5,2-2.15c1.26-1,2.56-2.06,2.94-3.5s-.21-3.08-.8-4.62c-.32-.82-.91-2.36-.68-2.75s1.82-.66,2.77-.81c1.61-.25,3.29-.51,4.36-1.58S15,10.87,15.21,9.25c.14-.94.39-2.53.8-2.77s1.93.37,2.75.69c1.54.59,3.14,1.2,4.62.8S25.87,6.29,26.88,5c.65-.81,1.64-2,2.15-2s1.49,1.22,2.14,2c1,1.26,2.06,2.56,3.5,2.94s3.08-.21,4.62-.8c.83-.32,2.37-.91,2.75-.69s.66,1.83.81,2.78c.25,1.61.51,3.29,1.59,4.36S47.18,15,48.8,15.2c1,.15,2.53.4,2.77.81s-.36,1.93-.68,2.75c-.59,1.54-1.21,3.13-.81,4.62s1.69,2.49,2.94,3.5c.81.65,2,1.64,2,2.15S53.83,30.52,53,31.17Z"/><path class="cls-3" d="M42.29,57.43a1.48,1.48,0,0,0-2-.63,1.51,1.51,0,0,0-.63,2l4.41,8.35L38.88,66a1.5,1.5,0,0,0-1.65.78l-2.62,5-4.5-8.49a1.5,1.5,0,0,0-2.65,1.4l5.84,11a1.5,1.5,0,0,0,1.32.8h0A1.47,1.47,0,0,0,36,75.77l3.41-6.55,7.21,1.58a1.5,1.5,0,0,0,1.65-2.16Z"/><path class="cls-3" d="M25.16,70.44a1.51,1.51,0,0,0-2,.69l-1.22,2.51-2.57-4.93a1.49,1.49,0,0,0-1.65-.78L12.37,69.1,17,59.5a1.5,1.5,0,1,0-2.71-1.29L8.34,70.58a1.53,1.53,0,0,0,.18,1.58,1.49,1.49,0,0,0,1.5.53l7.21-1.58,3.4,6.55a1.51,1.51,0,0,0,1.34.81h0a1.5,1.5,0,0,0,1.33-.84l2.54-5.18A1.51,1.51,0,0,0,25.16,70.44Z"/><path class="cls-3" d="M29.1,9.71A19.11,19.11,0,1,0,47.85,25,19.17,19.17,0,0,0,29.1,9.71ZM13,28.85A16.14,16.14,0,1,1,29.1,45,16.16,16.16,0,0,1,13,28.85Z"/></g></g></svg>